<svg xmlns="http://www.w3.org/2000/svg" xmlns:xlink="http://www.w3.org/1999/xlink" width="1000" zoomAndPan="magnify" viewBox="0 0 750 149.999998" height="200" preserveAspectRatio="xMidYMid meet" version="1.0"><path fill="#3a3af8" d="M 227.441406 26.722656 L 229.324219 26.78125 L 230.253906 26.816406 L 232.035156 26.933594 L 232.90625 27 L 234.496094 27.175781 L 236.574219 27.5 L 238.042969 27.796875 L 240.90625 28.53125 L 242.324219 28.917969 L 245.082031 29.832031 L 246.449219 30.3125 L 249.09375 31.402344 L 250.402344 31.96875 L 252.929688 33.230469 L 254.179688 33.882812 L 256.582031 35.3125 L 257.769531 36.046875 L 260.046875 37.636719 L 261.167969 38.449219 L 263.3125 40.195312 L 264.367188 41.085938 L 266.371094 42.984375 L 267.355469 43.945312 L 269.214844 45.988281 L 270.128906 47.027344 L 271.839844 49.207031 L 272.675781 50.3125 L 274.230469 52.625 L 274.984375 53.796875 L 276.378906 56.238281 L 277.058594 57.476562 L 278.285156 60.042969 L 278.875 61.339844 L 279.929688 64.023438 L 280.4375 65.378906 L 281.3125 68.171875 L 282.421875 72.484375 L 282.578125 73.1875 L 282.796875 74.4375 L 282.84375 74.753906 L 282.921875 75.417969 L 282.960938 75.753906 L 283.015625 76.503906 L 283.042969 76.890625 L 283.082031 77.773438 L 283.097656 78.238281 L 283.125 79.3125 L 283.132812 79.875 L 283.144531 81.191406 L 283.160156 83.492188 L 283.160156 86.566406 L 283.148438 87.765625 L 283.140625 88.339844 L 283.113281 89.3125 L 283.101562 89.777344 L 283.054688 90.589844 L 283.003906 91.367188 L 282.824219 92.695312 L 282.773438 93.03125 L 282.644531 93.71875 L 282.414062 94.839844 L 282.179688 95.949219 L 281.632812 98.101562 L 281.351562 99.167969 L 280.714844 101.238281 L 280.382812 102.265625 L 279.648438 104.261719 L 279.273438 105.25 L 278.441406 107.179688 L 278.011719 108.136719 L 277.078125 110 L 276.597656 110.925781 L 275.5625 112.734375 L 275.03125 113.628906 L 273.890625 115.386719 L 272.050781 117.96875 L 271.523438 118.671875 L 270.394531 120.070312 L 269.828125 120.753906 L 268.769531 121.964844 L 268.519531 122.242188 L 268.058594 122.734375 L 267.839844 122.964844 L 267.464844 123.332031 L 267.289062 123.5 L 267.019531 123.71875 L 266.765625 123.859375 L 266.726562 123.859375 L 266.507812 123.765625 L 266.378906 123.707031 L 266.019531 123.511719 L 265.824219 123.402344 L 265.367188 123.132812 L 264.621094 122.671875 L 264.085938 122.328125 L 262.871094 121.636719 L 262.246094 121.292969 L 260.914062 120.628906 L 259.5625 119.96875 L 256.753906 118.824219 L 256.0625 118.558594 L 254.734375 118.101562 L 254.082031 117.882812 L 253.347656 117.675781 L 253.722656 117.773438 L 256.484375 118.5 L 259.472656 115.390625 L 262.257812 112.238281 L 263.949219 110.046875 L 264.707031 108.910156 L 266.171875 106.609375 L 266.820312 105.414062 L 268.058594 103.007812 L 268.589844 101.761719 L 269.597656 99.25 L 270.015625 97.957031 L 270.796875 95.34375 L 271.097656 94.003906 L 271.644531 91.300781 L 271.828125 89.914062 L 272.140625 87.121094 L 272.203125 85.691406 L 272.230469 82.132812 L 272.109375 79.777344 L 271.980469 78.613281 L 271.683594 76.300781 L 271.464844 75.15625 L 270.992188 72.882812 L 270.691406 71.765625 L 270.046875 69.546875 L 269.667969 68.460938 L 268.863281 66.304688 L 268.398438 65.253906 L 267.4375 63.171875 L 266.898438 62.160156 L 265.785156 60.15625 L 265.171875 59.1875 L 263.914062 57.273438 L 263.230469 56.351562 L 261.832031 54.535156 L 261.082031 53.671875 L 259.546875 51.960938 L 258.730469 51.152344 L 257.070312 49.558594 L 256.191406 48.808594 L 254.40625 47.34375 L 253.46875 46.660156 L 251.566406 45.328125 L 250.574219 44.714844 L 248.558594 43.527344 L 247.507812 42.988281 L 245.386719 41.949219 L 244.285156 41.492188 L 240.449219 40.109375 L 237.804688 39.359375 L 236.449219 39.074219 L 233.71875 38.5625 L 232.332031 38.394531 L 229.550781 38.117188 L 228.152344 38.070312 L 225.347656 38.03125 L 223.953125 38.105469 L 221.160156 38.304688 L 219.78125 38.496094 L 217.035156 38.9375 L 215.691406 39.25 L 213.023438 39.929688 L 211.730469 40.359375 L 208.824219 41.445312 L 206.933594 42.261719 L 206.019531 42.714844 L 204.203125 43.652344 L 203.324219 44.160156 L 201.578125 45.214844 L 200.738281 45.78125 L 199.074219 46.941406 L 198.277344 47.5625 L 196.699219 48.828125 L 195.941406 49.496094 L 194.453125 50.863281 L 193.746094 51.582031 L 192.347656 53.039062 L 191.6875 53.804688 L 190.390625 55.347656 L 189.78125 56.152344 L 188.585938 57.78125 L 188.03125 58.625 L 186.945312 60.332031 L 186.445312 61.210938 L 185.472656 62.988281 L 185.03125 63.902344 L 184.175781 65.746094 L 183.792969 66.691406 L 183.058594 68.59375 L 182.742188 69.566406 L 182.136719 71.53125 L 181.882812 72.527344 L 181.40625 74.539062 L 181.21875 75.558594 L 180.96875 77.300781 L 180.835938 78.613281 L 180.789062 79.324219 L 180.707031 80.777344 L 180.679688 81.53125 L 180.644531 83.054688 L 180.644531 83.824219 L 180.660156 85.359375 L 180.679688 86.105469 L 180.738281 87.582031 L 180.789062 88.28125 L 180.894531 89.636719 L 180.964844 90.25 L 181.121094 91.425781 L 181.214844 91.921875 L 181.675781 94.011719 L 182.046875 95.4375 L 182.257812 96.15625 L 183.179688 99.035156 L 183.730469 100.445312 L 184.882812 103.226562 L 185.523438 104.515625 L 186.171875 105.789062 L 186.507812 106.386719 L 187.183594 107.558594 L 187.53125 108.101562 L 188.1875 109.078125 L 188.695312 109.789062 L 188.972656 110.164062 L 190.152344 111.710938 L 190.78125 112.492188 L 192.058594 114.035156 L 192.667969 114.726562 L 193.269531 115.398438 L 193.550781 115.699219 L 194.097656 116.273438 L 194.34375 116.515625 L 196.28125 118.410156 L 198.980469 117.730469 L 199.007812 117.722656 L 198.242188 117.953125 L 197.640625 118.140625 L 196.375 118.597656 L 195.097656 119.070312 L 192.460938 120.25 L 191.808594 120.5625 L 190.535156 121.21875 L 188.71875 122.246094 L 188.347656 122.46875 L 187.667969 122.871094 L 187.339844 123.066406 L 186.785156 123.382812 L 186.53125 123.53125 L 186.167969 123.730469 L 185.898438 123.859375 L 185.878906 123.859375 L 185.699219 123.710938 L 185.589844 123.613281 L 185.269531 123.308594 L 185.09375 123.140625 L 184.671875 122.714844 L 184.453125 122.496094 L 183.972656 121.992188 L 183.035156 121.011719 L 181.265625 118.886719 L 180.402344 117.800781 L 178.792969 115.484375 L 178.007812 114.308594 L 176.558594 111.832031 L 175.859375 110.574219 L 174.585938 107.949219 L 173.972656 106.625 L 172.886719 103.878906 L 172.367188 102.496094 L 171.484375 99.652344 L 171.0625 98.21875 L 170.378906 95.300781 L 169.601562 90.855469 L 169.472656 89.90625 L 169.289062 87.996094 L 169.214844 87.042969 L 169.140625 85.117188 L 169.113281 84.15625 L 169.144531 82.222656 L 169.171875 81.257812 L 169.300781 79.324219 L 169.378906 78.359375 L 169.613281 76.429688 L 169.738281 75.460938 L 170.070312 73.542969 L 170.25 72.585938 L 170.675781 70.679688 L 170.902344 69.734375 L 171.425781 67.847656 L 171.695312 66.914062 L 172.3125 65.054688 L 172.632812 64.132812 L 173.339844 62.3125 L 173.703125 61.402344 L 174.5 59.621094 L 174.910156 58.734375 L 175.796875 56.996094 L 176.25 56.136719 L 177.222656 54.449219 L 177.722656 53.613281 L 178.777344 51.984375 L 179.316406 51.175781 L 180.457031 49.609375 L 182.257812 47.339844 L 183.378906 46.003906 L 185.71875 43.539062 L 186.90625 42.335938 L 189.394531 40.121094 L 190.660156 39.046875 L 193.304688 37.085938 L 194.644531 36.136719 L 197.449219 34.421875 L 198.871094 33.59375 L 201.847656 32.121094 L 203.355469 31.414062 L 206.503906 30.179688 L 208.101562 29.59375 L 211.433594 28.59375 L 216.644531 27.355469 L 217.21875 27.238281 L 218.621094 27.058594 L 219.355469 26.972656 L 221.007812 26.851562 L 221.859375 26.800781 L 223.675781 26.738281 L 224.597656 26.71875 L 226.492188 26.71875 M 234.214844 123.363281 L 233.695312 123.460938 L 232.410156 123.613281 L 231.734375 123.6875 L 230.199219 123.777344 L 229.40625 123.816406 L 228.710938 123.824219 L 230.277344 123.761719 L 231.015625 123.707031 L 232.453125 123.589844 L 233.09375 123.511719 L 234.292969 123.34375 M 216.628906 122.964844 L 217.78125 123.214844 L 218.332031 123.320312 L 218.027344 123.273438 L 217.710938 123.226562 L 217.136719 123.117188 L 216.375 122.9375 L 215.453125 122.6875 L 214.53125 122.386719 M 237.773438 122.46875 L 236.617188 122.757812 L 238.003906 122.390625 M 240.171875 121.683594 L 239.578125 121.878906 L 240.269531 121.644531 M 571.128906 24.261719 L 571.941406 24.378906 L 573.503906 24.789062 L 574.269531 25.019531 L 575.726562 25.652344 L 576.4375 25.996094 L 577.757812 26.839844 L 578.402344 27.289062 L 579.5625 28.324219 L 580.121094 28.871094 L 581.09375 30.09375 L 582.320312 32.117188 L 582.347656 32.179688 L 582.449219 32.410156 L 582.503906 32.539062 L 582.65625 32.90625 L 582.738281 33.109375 L 582.933594 33.601562 L 583.042969 33.863281 L 583.285156 34.480469 L 583.414062 34.804688 L 583.699219 35.53125 L 583.847656 35.910156 L 584.175781 36.742188 L 584.339844 37.171875 L 584.703125 38.105469 L 584.890625 38.582031 L 585.285156 39.601562 L 585.6875 40.644531 L 586.578125 42.964844 L 587.035156 44.160156 L 588.019531 46.734375 L 588.519531 48.046875 L 589.574219 50.816406 L 591.203125 55.121094 L 591.929688 57.046875 L 593.320312 60.734375 L 594.007812 62.546875 L 595.316406 66.019531 L 595.964844 67.726562 L 597.191406 70.984375 L 597.796875 72.589844 L 598.949219 75.644531 L 599.515625 77.144531 L 600.59375 80.003906 L 601.125 81.410156 L 602.128906 84.074219 L 602.625 85.386719 L 603.5625 87.867188 L 604.019531 89.085938 L 604.886719 91.390625 L 605.3125 92.523438 L 606.117188 94.65625 L 606.511719 95.703125 L 607.25 97.675781 L 607.613281 98.640625 L 608.292969 100.453125 L 608.628906 101.339844 L 609.25 103 L 609.554688 103.8125 L 610.121094 105.328125 L 610.398438 106.070312 L 610.914062 107.449219 L 611.164062 108.121094 L 611.625 109.367188 L 611.855469 109.972656 L 612.269531 111.097656 L 612.46875 111.644531 L 612.839844 112.644531 L 613.019531 113.136719 L 613.347656 114.027344 L 613.503906 114.457031 L 613.792969 115.246094 L 613.929688 115.628906 L 614.175781 116.316406 L 614.296875 116.648438 L 614.507812 117.242188 L 614.613281 117.53125 L 614.792969 118.042969 L 614.960938 118.535156 L 615.214844 119.285156 L 615.324219 119.628906 L 615.472656 120.125 L 615.539062 120.347656 L 615.605469 120.640625 L 615.628906 120.769531 L 615.636719 120.910156 L 615.589844 121.015625 L 615.546875 121.039062 L 615.328125 121.089844 L 615.199219 121.113281 L 614.828125 121.152344 L 614.628906 121.171875 L 614.128906 121.199219 L 613.863281 121.214844 L 613.257812 121.238281 L 612.625 121.257812 L 611.140625 121.273438 L 610.375 121.28125 L 608.75 121.269531 L 607.941406 121.261719 L 606.371094 121.222656 L 605.609375 121.199219 L 604.269531 121.132812 L 603.957031 121.117188 L 603.410156 121.078125 L 603.148438 121.058594 L 602.722656 121.015625 L 602.527344 120.988281 L 602.242188 120.941406 L 602.007812 120.859375 L 601.972656 120.828125 L 601.820312 120.554688 L 601.738281 120.378906 L 601.496094 119.832031 L 601.363281 119.53125 L 601.042969 118.746094 L 600.875 118.328125 L 600.484375 117.335938 L 600.28125 116.820312 L 599.835938 115.65625 L 599.605469 115.050781 L 599.113281 113.746094 L 598.863281 113.078125 L 598.34375 111.65625 L 597.539062 109.433594 L 597.265625 108.675781 L 596.734375 107.21875 L 596.476562 106.5 L 595.980469 105.144531 L 595.734375 104.476562 L 595.28125 103.257812 L 595.0625 102.664062 L 594.660156 101.601562 L 594.46875 101.097656 L 594.140625 100.226562 L 593.980469 99.824219 L 593.726562 99.179688 L 593.609375 98.890625 L 593.445312 98.507812 L 593.308594 98.246094 L 593.296875 98.242188 L 593.152344 98.230469 L 593.058594 98.226562 L 592.746094 98.21875 L 592.574219 98.210938 L 592.105469 98.203125 L 591.855469 98.199219 L 591.246094 98.1875 L 590.921875 98.183594 L 590.171875 98.179688 L 589.785156 98.175781 L 588.90625 98.167969 L 588.453125 98.164062 L 587.453125 98.164062 L 586.941406 98.160156 L 585.832031 98.15625 L 585.261719 98.152344 L 584.046875 98.148438 L 583.429688 98.148438 L 582.121094 98.144531 L 576.390625 98.144531 L 573.214844 98.152344 L 571.359375 98.160156 L 572.359375 98.136719 L 572.839844 98.125 L 573.75 98.097656 L 574.113281 98.082031 L 574.78125 98.050781 L 575.019531 98.03125 L 575.429688 97.996094 L 575.53125 97.976562 L 575.660156 97.9375 L 575.613281 97.917969 L 575.222656 97.851562 L 574.757812 97.808594 L 574.433594 97.789062 L 573.730469 97.753906 L 573.304688 97.742188 L 572.402344 97.710938 L 571.890625 97.699219 L 570.828125 97.675781 L 570.246094 97.667969 L 569.0625 97.648438 L 568.441406 97.644531 L 565.867188 97.625 L 564.546875 97.625 L 561.902344 97.628906 L 560.664062 97.644531 L 559.441406 97.65625 L 558.871094 97.667969 L 557.757812 97.6875 L 557.253906 97.699219 L 556.289062 97.726562 L 555.875 97.742188 L 555.089844 97.773438 L 554.78125 97.789062 L 554.222656 97.828125 L 554.042969 97.851562 L 553.742188 97.894531 L 553.703125 97.917969 L 553.6875 97.96875 L 553.777344 97.992188 L 554.015625 98.035156 L 554.234375 98.054688 L 554.722656 98.089844 L 555.066406 98.105469 L 555.808594 98.136719 L 556.273438 98.148438 L 557.257812 98.171875 L 557.847656 98.183594 L 559.078125 98.199219 L 543.414062 98.25 L 539.273438 109.515625 L 538.992188 110.289062 L 538.4375 111.785156 L 538.164062 112.515625 L 537.640625 113.90625 L 537.382812 114.585938 L 536.902344 115.84375 L 536.667969 116.449219 L 536.242188 117.539062 L 536.039062 118.0625 L 535.683594 118.953125 L 535.511719 119.371094 L 535.238281 120.035156 L 535.109375 120.332031 L 534.925781 120.738281 L 534.765625 121.015625 L 534.734375 121.039062 L 534.539062 121.074219 L 534.417969 121.089844 L 534.0625 121.117188 L 533.863281 121.132812 L 533.371094 121.160156 L 533.113281 121.171875 L 532.507812 121.191406 L 531.878906 121.210938 L 530.390625 121.238281 L 529.625 121.246094 L 528.003906 121.253906 L 527.191406 121.253906 L 525.628906 121.242188 L 524.871094 121.230469 L 523.554688 121.195312 L 523.25 121.1875 L 522.722656 121.164062 L 522.472656 121.152344 L 522.070312 121.125 L 521.886719 121.109375 L 521.640625 121.074219 L 521.539062 121.058594 L 521.464844 121.019531 L 521.460938 121.015625 L 521.480469 120.941406 L 521.492188 120.894531 L 521.539062 120.742188 L 521.59375 120.570312 L 521.789062 119.996094 L 521.902344 119.671875 L 522.207031 118.8125 L 522.371094 118.347656 L 522.78125 117.222656 L 522.996094 116.628906 L 523.496094 115.257812 L 523.761719 114.542969 L 524.347656 112.949219 L 524.648438 112.125 L 525.316406 110.324219 L 525.660156 109.402344 L 526.394531 107.417969 L 526.773438 106.40625 L 527.570312 104.253906 L 527.980469 103.164062 L 528.832031 100.871094 L 529.269531 99.710938 L 530.171875 97.300781 L 530.628906 96.082031 L 531.570312 93.566406 L 532.519531 91.027344 L 534.511719 85.738281 L 535.511719 83.070312 L 537.5625 77.636719 L 538.585938 74.917969 L 540.632812 69.507812 L 541.652344 66.820312 L 543.628906 61.59375 L 544.117188 60.308594 L 545.070312 57.796875 L 545.546875 56.554688 L 546.460938 54.148438 L 546.914062 52.957031 L 547.785156 50.675781 L 548.214844 49.550781 L 549.035156 47.40625 L 549.433594 46.355469 L 550.191406 44.382812 L 550.5625 43.414062 L 551.253906 41.621094 L 551.589844 40.753906 L 552.203125 39.164062 L 552.496094 38.398438 L 553.03125 37.039062 L 553.28125 36.390625 L 553.722656 35.273438 L 553.929688 34.75 L 554.265625 33.898438 L 554.421875 33.511719 L 554.65625 32.949219 L 554.875 32.453125 L 555.164062 31.882812 L 555.816406 30.820312 L 556.152344 30.304688 L 556.890625 29.363281 L 557.273438 28.90625 L 558.101562 28.078125 L 558.527344 27.675781 L 559.445312 26.964844 L 559.917969 26.625 L 560.921875 26.03125 L 561.433594 25.75 L 562.523438 25.277344 L 563.078125 25.054688 L 564.25 24.699219 L 566.101562 24.304688 L 566.960938 24.171875 L 568.652344 24.09375 L 569.492188 24.085938 M 668.136719 25.6875 L 674.28125 25.777344 L 674.605469 100.6875 L 675.667969 102.84375 L 675.984375 103.488281 L 676.824219 104.71875 L 677.273438 105.320312 L 678.316406 106.417969 L 678.851562 106.941406 L 680.003906 107.8125 L 681.769531 108.773438 L 681.957031 108.847656 L 682.332031 108.976562 L 682.53125 109.035156 L 683.003906 109.132812 L 683.261719 109.175781 L 683.929688 109.25 L 684.300781 109.285156 L 685.261719 109.339844 L 685.527344 109.347656 L 686.125 109.371094 L 686.441406 109.382812 L 687.148438 109.402344 L 687.519531 109.410156 L 688.347656 109.425781 L 688.777344 109.4375 L 689.742188 109.449219 L 690.242188 109.457031 L 691.347656 109.46875 L 691.921875 109.476562 L 693.1875 109.484375 L 693.839844 109.492188 L 695.28125 109.503906 L 697.640625 109.519531 L 698.304688 109.527344 L 699.558594 109.535156 L 700.167969 109.539062 L 701.3125 109.554688 L 701.875 109.558594 L 702.917969 109.570312 L 703.429688 109.574219 L 704.378906 109.589844 L 704.835938 109.59375 L 705.691406 109.609375 L 706.105469 109.617188 L 706.867188 109.632812 L 707.605469 109.648438 L 708.824219 109.6875 L 709.394531 109.707031 L 710.292969 109.75 L 710.707031 109.773438 L 711.308594 109.824219 L 711.578125 109.851562 L 711.917969 109.914062 L 712.160156 110.011719 L 712.183594 110.050781 L 712.222656 110.214844 L 712.242188 110.308594 L 712.277344 110.582031 L 712.292969 110.734375 L 712.320312 111.101562 L 712.332031 111.296875 L 712.355469 111.746094 L 712.375 112.207031 L 712.398438 113.304688 L 712.40625 113.867188 L 712.402344 115.070312 L 712.398438 115.675781 L 712.378906 116.859375 L 712.359375 117.433594 L 712.316406 118.472656 L 712.289062 118.960938 L 712.226562 119.726562 L 712.207031 119.894531 L 712.167969 120.160156 L 712.097656 120.429688 L 711.785156 121.265625 L 698.871094 121.21875 L 697.101562 121.214844 L 693.640625 121.183594 L 692.800781 121.171875 L 691.191406 121.152344 L 690.40625 121.136719 L 688.9375 121.113281 L 688.226562 121.09375 L 686.945312 121.066406 L 686.332031 121.050781 L 685.277344 121.015625 L 684.78125 121 L 684 120.960938 L 683.648438 120.941406 L 683.175781 120.90625 L 682.46875 120.839844 L 681.097656 120.625 L 680.417969 120.507812 L 679.101562 120.195312 L 678.449219 120.027344 L 677.1875 119.609375 L 676.5625 119.394531 L 675.359375 118.878906 L 674.761719 118.609375 L 673.613281 117.996094 L 673.042969 117.679688 L 671.953125 116.964844 L 671.417969 116.59375 L 670.382812 115.785156 L 668.902344 114.457031 L 668.265625 113.835938 L 667.15625 112.585938 L 666.625 111.957031 L 665.695312 110.648438 L 665.25 109.980469 L 664.460938 108.554688 L 663.402344 106.222656 L 663.152344 105.597656 L 662.742188 104.558594 L 662.554688 104.042969 L 662.253906 102.9375 L 662.1875 102.640625 L 662.066406 101.96875 L 662.007812 101.617188 L 661.910156 100.796875 L 661.863281 100.367188 L 661.785156 99.355469 L 661.746094 98.824219 L 661.683594 97.574219 L 661.65625 96.917969 L 661.605469 95.382812 L 661.597656 94.980469 L 661.574219 94.113281 L 661.566406 93.667969 L 661.546875 92.710938 L 661.542969 92.226562 L 661.527344 91.175781 L 661.523438 90.640625 L 661.507812 89.492188 L 661.503906 88.90625 L 661.496094 87.652344 L 661.488281 87.011719 L 661.484375 85.648438 L 661.480469 84.953125 L 661.476562 83.472656 L 661.472656 82.71875 L 661.46875 81.113281 L 661.464844 80.300781 L 661.464844 77.6875 L 661.460938 75.824219 L 661.460938 69.699219 L 661.457031 68.601562 L 661.457031 60.160156 L 661.460938 55.328125 L 661.464844 54.140625 L 661.464844 51.828125 L 661.46875 50.683594 L 661.476562 48.464844 L 661.480469 47.371094 L 661.484375 45.261719 L 661.488281 44.226562 L 661.5 42.238281 L 661.503906 41.261719 L 661.515625 39.40625 L 661.519531 38.5 L 661.53125 36.792969 L 661.539062 35.960938 L 661.550781 34.414062 L 661.558594 33.660156 L 661.570312 32.285156 L 661.578125 31.621094 L 661.59375 30.425781 L 661.597656 29.855469 L 661.617188 28.859375 L 661.625 28.386719 L 661.640625 27.601562 L 661.648438 27.234375 L 661.667969 26.671875 L 661.675781 26.417969 L 661.695312 26.089844 L 661.722656 25.871094 L 661.738281 25.855469 L 661.902344 25.820312 L 662.003906 25.800781 L 662.3125 25.773438 L 662.484375 25.761719 L 662.925781 25.734375 L 663.164062 25.726562 L 663.71875 25.707031 L 664.007812 25.699219 L 664.664062 25.6875 L 664.996094 25.679688 L 665.730469 25.675781 M 466.386719 25.667969 L 467.042969 25.667969 L 468.292969 25.671875 L 468.90625 25.671875 L 470.058594 25.675781 L 470.625 25.679688 L 471.675781 25.683594 L 472.1875 25.6875 L 473.128906 25.691406 L 473.582031 25.695312 L 474.40625 25.703125 L 474.796875 25.707031 L 475.488281 25.714844 L 475.820312 25.71875 L 476.375 25.726562 L 476.632812 25.730469 L 477.042969 25.742188 L 477.226562 25.746094 L 477.484375 25.757812 L 477.683594 25.777344 L 477.867188 25.820312 L 478.109375 25.96875 L 478.160156 26.027344 L 478.238281 26.207031 L 478.269531 26.316406 L 478.320312 26.636719 L 478.339844 26.8125 L 478.359375 27.3125 L 478.371094 27.589844 L 478.375 28.3125 L 478.371094 28.707031 L 478.359375 29.699219 L 478.332031 31.539062 L 478.242188 37.125 L 469.074219 37.210938 L 459.902344 37.296875 L 459.988281 73.363281 L 460.070312 109.429688 L 478.242188 109.753906 L 478.324219 115.246094 L 478.332031 115.761719 L 478.339844 116.667969 L 478.34375 117.101562 L 478.339844 117.851562 L 478.339844 118.214844 L 478.328125 118.824219 L 478.320312 119.109375 L 478.300781 119.589844 L 478.285156 119.816406 L 478.253906 120.179688 L 478.234375 120.34375 L 478.1875 120.597656 L 478.164062 120.710938 L 478.105469 120.863281 L 478 121 L 477.988281 121.003906 L 477.832031 121.023438 L 477.734375 121.03125 L 477.417969 121.050781 L 477.246094 121.058594 L 476.777344 121.074219 L 476.523438 121.082031 L 475.914062 121.097656 L 475.59375 121.105469 L 474.847656 121.121094 L 474.648438 121.125 L 474.671875 121.109375 L 474.691406 121.070312 L 474.703125 120.984375 L 474.671875 120.941406 L 474.347656 120.710938 L 474.015625 120.617188 L 473.84375 120.617188 L 473.398438 120.710938 L 473.214844 120.847656 L 473.214844 120.941406 L 473.308594 121.109375 L 473.394531 121.144531 L 473.136719 121.148438 L 472.144531 121.160156 L 471.636719 121.167969 L 470.535156 121.179688 L 469.972656 121.1875 L 468.773438 121.195312 L 468.160156 121.203125 L 466.867188 121.210938 L 465.554688 121.222656 L 462.679688 121.238281 L 461.210938 121.246094 L 458.078125 121.253906 L 453.160156 121.257812 L 451.933594 121.261719 L 449.648438 121.257812 L 446.472656 121.257812 L 445.464844 121.253906 L 443.609375 121.25 L 442.707031 121.246094 L 441.050781 121.246094 L 440.246094 121.242188 L 438.78125 121.230469 L 438.070312 121.230469 L 436.785156 121.21875 L 436.160156 121.210938 L 435.042969 121.203125 L 434.507812 121.195312 L 433.546875 121.179688 L 433.085938 121.171875 L 432.28125 121.152344 L 431.894531 121.148438 L 431.226562 121.125 L 430.910156 121.113281 L 430.375 121.09375 L 430.121094 121.078125 L 429.703125 121.054688 L 429.507812 121.039062 L 429.203125 121.007812 L 429.0625 120.996094 L 428.855469 120.960938 L 428.765625 120.941406 L 428.648438 120.90625 L 428.601562 120.886719 L 428.566406 120.847656 L 428.554688 120.816406 L 428.539062 120.65625 L 428.527344 120.554688 L 428.511719 120.261719 L 428.503906 120.101562 L 428.492188 119.699219 L 428.488281 119.484375 L 428.480469 118.984375 L 428.472656 118.460938 L 428.476562 117.199219 L 428.496094 115.089844 L 428.585938 109.753906 L 446.921875 109.582031 L 446.921875 63.640625 L 446.917969 62.164062 L 446.914062 59.441406 L 446.910156 58.117188 L 446.902344 55.679688 L 446.902344 54.496094 L 446.894531 52.335938 L 446.890625 51.285156 L 446.882812 49.382812 L 446.875 48.464844 L 446.863281 46.8125 L 446.855469 46.015625 L 446.84375 44.597656 L 446.832031 43.917969 L 446.816406 42.71875 L 446.808594 42.144531 L 446.789062 41.15625 L 446.777344 40.683594 L 446.753906 39.886719 L 446.742188 39.511719 L 446.714844 38.894531 L 446.703125 38.609375 L 446.671875 38.160156 L 446.660156 37.953125 L 446.628906 37.65625 L 446.613281 37.527344 L 446.578125 37.371094 L 446.519531 37.28125 L 446.488281 37.28125 L 446.257812 37.277344 L 446.117188 37.273438 L 445.667969 37.269531 L 445.421875 37.269531 L 444.789062 37.265625 L 444.453125 37.261719 L 443.660156 37.25 L 443.242188 37.25 L 442.308594 37.242188 L 441.828125 37.234375 L 440.78125 37.230469 L 437.347656 37.199219 L 428.585938 37.125 L 428.585938 25.777344 L 452.765625 25.6875 L 454.425781 25.683594 L 457.636719 25.671875 L 459.21875 25.667969 L 463.675781 25.667969 M 121.550781 37.125 L 100.289062 37.289062 L 99.128906 37.300781 L 96.988281 37.316406 L 95.949219 37.324219 L 94.03125 37.34375 L 93.105469 37.351562 L 91.402344 37.367188 L 90.578125 37.378906 L 89.078125 37.394531 L 88.355469 37.402344 L 87.042969 37.421875 L 86.410156 37.433594 L 85.269531 37.453125 L 84.71875 37.460938 L 83.738281 37.484375 L 83.265625 37.496094 L 82.429688 37.515625 L 82.03125 37.53125 L 81.324219 37.554688 L 80.984375 37.570312 L 80.398438 37.601562 L 80.117188 37.613281 L 79.636719 37.648438 L 79.40625 37.667969 L 79.007812 37.703125 L 78.636719 37.742188 L 78.097656 37.828125 L 77.492188 37.988281 L 76.894531 38.191406 L 75.808594 38.679688 L 75.277344 38.933594 L 74.285156 39.539062 L 73.800781 39.863281 L 72.859375 40.617188 L 71.460938 41.957031 L 71.078125 42.363281 L 70.394531 43.222656 L 70.070312 43.664062 L 69.503906 44.582031 L 69.234375 45.050781 L 68.777344 46.015625 L 68.5625 46.5 L 68.21875 47.503906 L 68.0625 48.007812 L 67.832031 49.039062 L 67.730469 49.554688 L 67.605469 50.59375 L 67.558594 51.117188 L 67.542969 52.167969 L 67.550781 52.6875 L 67.644531 53.730469 L 67.703125 54.25 L 67.902344 55.277344 L 68.015625 55.789062 L 68.316406 56.785156 L 68.484375 57.28125 L 68.890625 58.246094 L 69.105469 58.71875 L 69.617188 59.632812 L 69.886719 60.085938 L 70.496094 60.945312 L 70.8125 61.363281 L 71.519531 62.152344 L 71.890625 62.539062 L 72.699219 63.25 L 74.023438 64.210938 L 74.429688 64.472656 L 75.183594 64.910156 L 75.554688 65.117188 L 76.320312 65.445312 L 76.714844 65.601562 L 77.601562 65.847656 L 78.074219 65.957031 L 79.195312 66.125 L 79.492188 66.164062 L 80.152344 66.226562 L 80.5 66.257812 L 81.253906 66.304688 L 81.648438 66.328125 L 82.515625 66.367188 L 82.964844 66.382812 L 83.953125 66.410156 L 84.464844 66.421875 L 85.59375 66.4375 L 86.175781 66.445312 L 87.453125 66.457031 L 88.109375 66.460938 L 89.554688 66.464844 L 91.914062 66.46875 L 93.773438 66.46875 L 94.359375 66.472656 L 95.445312 66.472656 L 95.972656 66.476562 L 96.945312 66.476562 L 97.417969 66.480469 L 98.285156 66.488281 L 98.707031 66.496094 L 99.480469 66.503906 L 99.859375 66.507812 L 100.546875 66.519531 L 101.214844 66.535156 L 102.339844 66.574219 L 102.875 66.597656 L 103.777344 66.65625 L 104.210938 66.6875 L 104.96875 66.761719 L 107.058594 67.089844 L 107.972656 67.269531 L 109.726562 67.734375 L 110.589844 67.984375 L 112.242188 68.585938 L 113.046875 68.90625 L 114.582031 69.644531 L 115.335938 70.027344 L 116.757812 70.894531 L 117.457031 71.339844 L 118.757812 72.332031 L 119.390625 72.839844 L 120.570312 73.945312 L 121.148438 74.511719 L 122.199219 75.726562 L 122.707031 76.347656 L 123.628906 77.671875 L 124.074219 78.34375 L 124.863281 79.765625 L 125.238281 80.484375 L 125.886719 82 L 126.195312 82.769531 L 126.703125 84.371094 L 126.9375 85.179688 L 127.300781 86.863281 L 127.460938 87.714844 L 127.671875 89.476562 L 127.761719 90.363281 L 127.820312 92.191406 L 127.828125 93.117188 L 127.730469 95.011719 L 127.402344 97.917969 L 127.296875 98.625 L 127.023438 99.996094 L 126.878906 100.675781 L 126.53125 101.992188 L 126.347656 102.644531 L 125.925781 103.902344 L 125.710938 104.519531 L 125.214844 105.71875 L 124.960938 106.3125 L 124.394531 107.453125 L 124.101562 108.015625 L 123.46875 109.097656 L 123.140625 109.628906 L 122.4375 110.648438 L 122.078125 111.148438 L 121.300781 112.105469 L 120.90625 112.574219 L 120.066406 113.464844 L 119.636719 113.902344 L 118.726562 114.726562 L 118.265625 115.132812 L 117.289062 115.890625 L 116.792969 116.265625 L 115.753906 116.957031 L 115.230469 117.296875 L 114.125 117.917969 L 113.566406 118.21875 L 112.398438 118.773438 L 111.808594 119.042969 L 110.578125 119.527344 L 108.667969 120.171875 L 108.300781 120.28125 L 107.4375 120.46875 L 106.972656 120.5625 L 105.835938 120.714844 L 105.53125 120.75 L 104.851562 120.8125 L 104.5 120.84375 L 103.714844 120.902344 L 103.304688 120.925781 L 102.402344 120.976562 L 101.9375 121 L 100.898438 121.039062 L 100.367188 121.0625 L 99.1875 121.09375 L 98.578125 121.113281 L 97.242188 121.140625 L 96.554688 121.15625 L 95.046875 121.179688 L 94.269531 121.191406 L 92.578125 121.207031 L 91.707031 121.214844 L 89.820312 121.230469 L 88.847656 121.234375 L 86.746094 121.242188 L 85.667969 121.246094 L 83.34375 121.25 L 79.589844 121.253906 L 78.527344 121.257812 L 76.550781 121.253906 L 73.800781 121.253906 L 72.925781 121.25 L 71.320312 121.246094 L 70.539062 121.246094 L 69.101562 121.242188 L 68.40625 121.238281 L 67.132812 121.230469 L 66.515625 121.230469 L 65.398438 121.21875 L 64.859375 121.210938 L 63.890625 121.199219 L 63.421875 121.191406 L 62.589844 121.179688 L 62.191406 121.171875 L 61.488281 121.152344 L 61.152344 121.144531 L 60.941406 121.136719 L 61.019531 121.027344 L 61.019531 120.941406 L 60.921875 120.710938 L 60.785156 120.617188 L 60.691406 120.617188 L 60.464844 120.710938 L 60.367188 120.847656 L 60.367188 120.941406 L 60.40625 121.109375 L 60.414062 121.117188 L 60.292969 121.113281 L 59.828125 121.09375 L 59.605469 121.078125 L 59.238281 121.054688 L 59.070312 121.039062 L 58.800781 121.007812 L 58.679688 120.996094 L 58.5 120.960938 L 58.335938 120.925781 L 58.238281 120.847656 L 58.230469 120.816406 L 58.210938 120.65625 L 58.199219 120.554688 L 58.183594 120.261719 L 58.179688 120.101562 L 58.164062 119.699219 L 58.160156 119.484375 L 58.152344 118.984375 L 58.144531 118.460938 L 58.148438 117.199219 L 58.167969 115.089844 L 58.257812 109.753906 L 80.652344 109.589844 L 81.929688 109.578125 L 84.273438 109.558594 L 85.410156 109.554688 L 87.488281 109.535156 L 88.5 109.527344 L 90.328125 109.507812 L 91.214844 109.5 L 92.8125 109.480469 L 93.585938 109.476562 L 94.96875 109.457031 L 95.640625 109.445312 L 96.832031 109.425781 L 97.402344 109.417969 L 98.410156 109.394531 L 98.894531 109.382812 L 99.742188 109.359375 L 100.148438 109.34375 L 100.851562 109.320312 L 101.1875 109.304688 L 101.761719 109.273438 L 102.03125 109.257812 L 102.496094 109.222656 L 102.71875 109.203125 L 103.085938 109.164062 L 103.4375 109.121094 L 103.933594 109.023438 L 104.5 108.847656 L 105.113281 108.605469 L 106.1875 108.089844 L 106.707031 107.820312 L 107.65625 107.214844 L 108.125 106.894531 L 109.035156 106.136719 L 110.441406 104.773438 L 110.921875 104.269531 L 111.761719 103.210938 L 112.160156 102.667969 L 112.835938 101.542969 L 113.15625 100.972656 L 113.675781 99.800781 L 113.914062 99.207031 L 114.28125 97.992188 L 114.449219 97.382812 L 114.664062 96.152344 L 114.753906 95.535156 L 114.820312 94.292969 L 114.835938 93.675781 L 114.761719 92.441406 L 114.707031 91.828125 L 114.488281 90.617188 L 114.359375 90.019531 L 114.007812 88.839844 L 113.808594 88.261719 L 113.316406 87.136719 L 113.054688 86.578125 L 112.429688 85.515625 L 112.101562 84.996094 L 111.34375 84.011719 L 110.953125 83.53125 L 110.074219 82.640625 L 109.613281 82.210938 L 108.609375 81.429688 L 108.09375 81.050781 L 106.964844 80.386719 L 105.144531 79.546875 L 104.988281 79.488281 L 104.621094 79.386719 L 104.429688 79.335938 L 103.929688 79.253906 L 103.660156 79.210938 L 102.960938 79.144531 L 102.585938 79.109375 L 101.625 79.050781 L 101.359375 79.039062 L 100.78125 79.011719 L 100.480469 79 L 99.808594 78.976562 L 99.464844 78.964844 L 98.695312 78.941406 L 98.300781 78.933594 L 97.425781 78.910156 L 96.980469 78.898438 L 95.992188 78.875 L 95.484375 78.867188 L 94.375 78.847656 L 93.804688 78.835938 L 92.566406 78.816406 L 90.554688 78.78125 L 89.691406 78.765625 L 88.109375 78.742188 L 87.34375 78.726562 L 85.9375 78.699219 L 85.257812 78.683594 L 84.011719 78.65625 L 83.410156 78.644531 L 82.308594 78.609375 L 81.777344 78.589844 L 80.808594 78.554688 L 80.34375 78.535156 L 79.488281 78.492188 L 79.074219 78.46875 L 78.320312 78.417969 L 77.953125 78.390625 L 77.285156 78.328125 L 76.632812 78.265625 L 75.511719 78.101562 L 74.972656 78.015625 L 73.992188 77.792969 L 73.503906 77.675781 L 72.53125 77.386719 L 70.949219 76.859375 L 69.945312 76.511719 L 68.023438 75.617188 L 67.085938 75.140625 L 65.3125 74.011719 L 64.445312 73.417969 L 62.835938 72.066406 L 62.054688 71.371094 L 60.625 69.824219 L 59.9375 69.03125 L 58.710938 67.3125 L 58.121094 66.433594 L 57.117188 64.566406 L 56.644531 63.613281 L 55.875 61.609375 L 55.015625 58.488281 L 54.9375 58.117188 L 54.8125 57.25 L 54.753906 56.804688 L 54.667969 55.816406 L 54.589844 54.808594 L 54.546875 52.605469 L 54.542969 51.503906 L 54.652344 49.367188 L 54.6875 48.855469 L 54.792969 47.894531 L 54.988281 46.601562 L 55.109375 45.984375 L 55.40625 44.773438 L 55.566406 44.171875 L 55.941406 43 L 56.144531 42.417969 L 56.597656 41.289062 L 56.835938 40.730469 L 57.363281 39.644531 L 57.636719 39.109375 L 58.238281 38.070312 L 58.546875 37.558594 L 59.21875 36.570312 L 59.90625 35.597656 L 61.480469 33.808594 L 62.300781 32.941406 L 64.121094 31.390625 L 64.589844 31.015625 L 65.570312 30.316406 L 66.066406 29.976562 L 67.105469 29.34375 L 67.628906 29.035156 L 68.71875 28.472656 L 69.269531 28.195312 L 70.40625 27.703125 L 70.984375 27.464844 L 72.167969 27.042969 L 74 26.5 L 74.339844 26.410156 L 74.957031 26.261719 L 75.269531 26.195312 L 75.96875 26.085938 L 76.160156 26.058594 L 76.585938 26.015625 L 76.8125 25.992188 L 77.324219 25.957031 L 77.597656 25.9375 L 78.21875 25.910156 L 78.546875 25.894531 L 79.308594 25.871094 L 79.703125 25.859375 L 80.617188 25.839844 L 81.097656 25.832031 L 82.195312 25.816406 L 82.769531 25.808594 L 84.070312 25.800781 L 84.746094 25.796875 L 86.277344 25.789062 L 87.074219 25.785156 L 88.855469 25.785156 L 89.777344 25.78125 L 91.835938 25.78125 L 92.898438 25.777344 L 121.550781 25.777344 M 380.875 37.125 L 372.113281 37.328125 L 371.425781 37.34375 L 370.140625 37.382812 L 369.511719 37.402344 L 368.335938 37.445312 L 367.761719 37.472656 L 366.683594 37.527344 L 366.152344 37.558594 L 365.164062 37.628906 L 364.1875 37.703125 L 362.460938 37.898438 L 361.628906 38.003906 L 360.113281 38.277344 L 359.375 38.429688 L 357.992188 38.796875 L 357.308594 39 L 355.972656 39.480469 L 355.300781 39.742188 L 353.925781 40.355469 L 351.734375 41.441406 L 350.675781 41.992188 L 348.671875 43.246094 L 347.695312 43.898438 L 345.859375 45.339844 L 344.960938 46.082031 L 343.300781 47.683594 L 342.492188 48.507812 L 341.007812 50.261719 L 340.289062 51.160156 L 338.988281 53.046875 L 338.359375 54.007812 L 337.246094 56.015625 L 336.714844 57.03125 L 335.792969 59.136719 L 335.359375 60.199219 L 334.632812 62.390625 L 334.300781 63.492188 L 333.78125 65.746094 L 333.546875 66.878906 L 333.234375 69.183594 L 333.105469 70.339844 L 333.011719 72.675781 L 332.988281 73.839844 L 333.109375 76.191406 L 333.199219 77.367188 L 333.542969 79.714844 L 333.746094 80.886719 L 334.320312 83.214844 L 334.636719 84.375 L 335.445312 86.667969 L 336.929688 90.050781 L 337.457031 91.109375 L 338.632812 93.109375 L 339.242188 94.09375 L 340.582031 95.933594 L 341.269531 96.839844 L 342.757812 98.523438 L 343.523438 99.34375 L 345.167969 100.859375 L 346.003906 101.597656 L 347.796875 102.953125 L 348.707031 103.605469 L 350.640625 104.785156 L 351.628906 105.355469 L 353.703125 106.363281 L 356.972656 107.675781 L 357.941406 108.015625 L 359.757812 108.515625 L 360.222656 108.625 L 361.195312 108.8125 L 361.691406 108.902344 L 362.769531 109.050781 L 363.328125 109.117188 L 364.578125 109.230469 L 365.226562 109.285156 L 366.703125 109.367188 L 367.476562 109.40625 L 369.242188 109.472656 L 369.703125 109.488281 L 370.691406 109.515625 L 372.273438 109.554688 L 380.875 109.753906 L 380.964844 115.242188 L 380.972656 115.761719 L 380.980469 116.679688 L 380.984375 117.117188 L 380.984375 118.234375 L 380.976562 118.84375 L 380.96875 119.128906 L 380.945312 119.605469 L 380.933594 119.832031 L 380.898438 120.183594 L 380.882812 120.351562 L 380.832031 120.597656 L 380.808594 120.707031 L 380.75 120.859375 L 380.640625 120.992188 L 380.609375 121.011719 L 380.425781 121.046875 L 380.320312 121.066406 L 380 121.09375 L 379.820312 121.109375 L 379.375 121.132812 L 379.136719 121.144531 L 378.578125 121.164062 L 378.285156 121.171875 L 378.253906 121.171875 L 378.273438 121.171875 L 378.332031 121.027344 L 378.277344 120.941406 L 378.046875 120.710938 L 377.855469 120.617188 L 377.773438 120.617188 L 377.558594 120.710938 L 377.46875 120.847656 L 377.46875 120.941406 L 377.527344 121.109375 L 377.617188 121.171875 L 377.65625 121.1875 L 377.632812 121.1875 L 377.296875 121.191406 L 376.5625 121.199219 L 375.808594 121.207031 L 374.132812 121.207031 L 372.417969 121.195312 L 368.78125 121.117188 L 367.894531 121.09375 L 366.226562 121.03125 L 365.417969 121 L 363.996094 120.917969 L 363.074219 120.855469 L 361.25 120.65625 L 360.339844 120.542969 L 358.539062 120.246094 L 357.640625 120.082031 L 355.859375 119.683594 L 354.976562 119.46875 L 353.234375 118.96875 L 352.367188 118.710938 L 350.65625 118.117188 L 349.8125 117.808594 L 348.144531 117.121094 L 347.316406 116.765625 L 345.691406 115.992188 L 344.890625 115.59375 L 343.316406 114.730469 L 342.539062 114.285156 L 341.023438 113.339844 L 340.269531 112.855469 L 338.8125 111.824219 L 338.089844 111.300781 L 336.695312 110.191406 L 336.007812 109.628906 L 334.679688 108.441406 L 334.027344 107.835938 L 332.773438 106.578125 L 332.15625 105.9375 L 330.976562 104.605469 L 330.398438 103.929688 L 329.300781 102.53125 L 327.757812 100.351562 L 327.085938 99.34375 L 325.867188 97.257812 L 325.28125 96.207031 L 324.234375 94.046875 L 323.730469 92.960938 L 322.855469 90.742188 L 322.4375 89.621094 L 321.730469 87.347656 L 321.394531 86.203125 L 320.855469 83.886719 L 320.605469 82.722656 L 320.238281 80.371094 L 320.070312 79.195312 L 319.871094 76.824219 L 319.792969 75.640625 L 319.757812 73.261719 L 319.761719 72.070312 L 319.898438 69.695312 L 319.988281 68.503906 L 320.292969 66.140625 L 320.464844 64.960938 L 320.9375 62.617188 L 321.199219 61.453125 L 321.839844 59.144531 L 322.179688 57.992188 L 322.992188 55.734375 L 323.417969 54.609375 L 324.398438 52.398438 L 324.90625 51.304688 L 326.054688 49.164062 L 327.96875 46.042969 L 328.257812 45.605469 L 329.003906 44.625 L 329.402344 44.121094 L 330.324219 43.042969 L 330.804688 42.496094 L 331.851562 41.367188 L 332.390625 40.800781 L 333.519531 39.667969 L 334.09375 39.105469 L 335.25 38.019531 L 335.832031 37.484375 L 336.972656 36.488281 L 337.539062 36.007812 L 338.617188 35.152344 L 340.105469 34.082031 L 340.832031 33.601562 L 342.3125 32.699219 L 343.058594 32.261719 L 344.5625 31.445312 L 345.324219 31.046875 L 346.859375 30.316406 L 347.636719 29.960938 L 349.210938 29.308594 L 350 28.992188 L 351.609375 28.425781 L 352.417969 28.148438 L 354.058594 27.664062 L 354.882812 27.429688 L 356.566406 27.023438 L 359.125 26.503906 L 359.957031 26.355469 L 361.460938 26.144531 L 361.84375 26.101562 L 362.636719 26.027344 L 363.042969 25.992188 L 363.929688 25.9375 L 364.390625 25.910156 L 365.421875 25.871094 L 365.964844 25.855469 L 367.203125 25.828125 L 367.851562 25.820312 L 369.351562 25.804688 L 371.949219 25.796875 L 380.875 25.777344 M 243.609375 120.230469 L 243.109375 120.445312 L 243.664062 120.203125 M 245.6875 119.136719 L 245.492188 119.242188 L 245.710938 119.121094 M 206.070312 118.511719 L 206.925781 119.011719 L 206.140625 118.558594 L 206.046875 118.5 M 248.820312 117.300781 L 247.539062 117.980469 L 247.105469 118.273438 L 246.671875 118.542969 L 247.121094 118.265625 L 247.539062 117.980469 L 248.6875 117.335938 L 248.90625 117.273438 M 204.15625 117.421875 L 204.398438 117.535156 L 204.894531 117.789062 L 205.167969 117.949219 L 205.742188 118.300781 L 205.742188 118.304688 L 205.042969 117.890625 L 204.707031 117.699219 L 204.113281 117.421875 L 203.980469 117.359375 M 249.433594 117.113281 L 249.421875 117.117188 L 249.441406 117.109375 L 249.453125 117.109375 M 546.160156 97.609375 L 545.082031 97.632812 L 544.625 97.6875 L 544.191406 97.742188 L 544.023438 97.78125 L 543.726562 97.867188 L 543.644531 97.917969 L 543.53125 98.019531 L 543.570312 98.0625 L 543.710938 98.132812 L 543.878906 98.160156 L 544.273438 98.203125 L 544.570312 98.21875 L 545.238281 98.238281 L 545.671875 98.238281 L 546.679688 98.21875 L 547.257812 98.179688 L 547.480469 98.148438 L 547.878906 98.085938 L 548 98.050781 L 548.1875 97.96875 L 548.1875 97.917969 L 548.019531 97.78125 L 547.753906 97.710938 L 547.566406 97.6875 L 547.160156 97.640625 L 546.921875 97.628906 L 546.421875 97.609375 M 568.480469 35.515625 L 568.136719 35.570312 L 567.453125 35.851562 L 567.121094 36.011719 L 566.535156 36.460938 L 565.890625 37.257812 L 565.871094 37.300781 L 565.777344 37.515625 L 565.722656 37.648438 L 565.570312 38.027344 L 565.488281 38.234375 L 565.28125 38.765625 L 565.171875 39.050781 L 564.914062 39.726562 L 564.777344 40.078125 L 564.472656 40.882812 L 564.316406 41.300781 L 563.96875 42.226562 L 563.785156 42.703125 L 563.398438 43.734375 L 563.203125 44.261719 L 562.777344 45.390625 L 562.347656 46.539062 L 561.398438 49.085938 L 560.914062 50.390625 L 559.878906 53.175781 L 559.351562 54.589844 L 558.269531 57.527344 L 557.71875 59.003906 L 556.613281 62 L 556.0625 63.5 L 554.96875 66.464844 L 554.429688 67.9375 L 553.382812 70.789062 L 552.867188 72.191406 L 551.902344 74.832031 L 551.667969 75.472656 L 551.21875 76.703125 L 551 77.3125 L 550.582031 78.457031 L 550.378906 79.023438 L 549.996094 80.078125 L 549.808594 80.589844 L 549.464844 81.539062 L 549.300781 82 L 549.003906 82.828125 L 548.859375 83.230469 L 548.609375 83.933594 L 548.488281 84.269531 L 548.292969 84.832031 L 548.199219 85.097656 L 548.058594 85.511719 L 547.992188 85.699219 L 547.910156 85.953125 L 547.863281 86.136719 L 547.863281 86.183594 L 548.050781 86.257812 L 548.121094 86.277344 L 548.3125 86.308594 L 548.417969 86.324219 L 548.695312 86.355469 L 548.847656 86.371094 L 549.226562 86.394531 L 549.425781 86.410156 L 549.914062 86.429688 L 550.171875 86.441406 L 550.769531 86.460938 L 551.089844 86.46875 L 551.816406 86.488281 L 552.199219 86.496094 L 553.0625 86.507812 L 553.511719 86.515625 L 554.527344 86.527344 L 555.046875 86.53125 L 556.21875 86.542969 L 556.820312 86.546875 L 558.152344 86.554688 L 558.839844 86.558594 L 560.347656 86.5625 L 561.125 86.566406 L 563.6875 86.566406 L 565.574219 86.570312 L 570.0625 86.570312 L 572.808594 86.566406 L 574.15625 86.566406 L 576.699219 86.558594 L 577.941406 86.554688 L 580.226562 86.546875 L 581.332031 86.539062 L 583.304688 86.527344 L 583.777344 86.523438 L 584.648438 86.515625 L 585.074219 86.511719 L 585.847656 86.503906 L 586.21875 86.5 L 586.890625 86.492188 L 587.210938 86.488281 L 587.769531 86.480469 L 588.03125 86.472656 L 588.46875 86.464844 L 588.671875 86.460938 L 588.980469 86.449219 L 589.121094 86.445312 L 589.300781 86.433594 L 589.371094 86.429688 L 589.40625 86.421875 L 589.40625 86.414062 L 589.367188 86.296875 L 589.34375 86.222656 L 589.257812 85.972656 L 589.207031 85.835938 L 589.074219 85.457031 L 589.003906 85.257812 L 588.832031 84.769531 L 588.738281 84.503906 L 588.523438 83.90625 L 588.414062 83.59375 L 588.164062 82.890625 L 588.035156 82.527344 L 587.75 81.734375 L 587.605469 81.324219 L 587.289062 80.445312 L 586.96875 79.546875 L 586.246094 77.527344 L 585.871094 76.492188 L 585.0625 74.238281 L 584.652344 73.085938 L 583.78125 70.667969 L 583.339844 69.441406 L 582.433594 66.914062 L 581.519531 64.375 L 579.671875 59.257812 L 579.21875 57.996094 L 578.335938 55.542969 L 577.902344 54.335938 L 577.070312 52.039062 L 576.664062 50.917969 L 575.910156 48.839844 L 575.546875 47.835938 L 574.898438 46.042969 L 574.742188 45.613281 L 574.453125 44.824219 L 574.316406 44.441406 L 574.0625 43.742188 L 573.9375 43.40625 L 573.722656 42.808594 L 573.4375 42.039062 L 573.222656 41.453125 L 572.828125 40.429688 L 572.636719 39.9375 L 572.28125 39.09375 L 572.105469 38.691406 L 571.777344 38.011719 L 571.613281 37.6875 L 571.304688 37.15625 L 571.152344 36.90625 L 570.855469 36.503906 L 570.707031 36.320312 L 570.402344 36.035156 L 570.25 35.90625 L 569.941406 35.71875 L 569.449219 35.53125 L 569.152344 35.457031 M 89.863281 36.886719 L 89.03125 36.902344 L 87.394531 36.9375 L 86.660156 36.964844 L 85.542969 37.011719 L 85.109375 37.03125 L 84.703125 37.050781 L 84.527344 37.058594 L 84.207031 37.074219 L 84.082031 37.078125 L 83.847656 37.09375 L 83.765625 37.097656 L 83.628906 37.113281 L 83.59375 37.117188 L 83.550781 37.128906 L 83.566406 37.132812 L 83.617188 37.140625 L 83.683594 37.144531 L 83.839844 37.152344 L 83.953125 37.152344 L 84.210938 37.160156 L 84.375 37.164062 L 84.742188 37.167969 L 84.960938 37.171875 L 85.707031 37.171875 L 86.289062 37.175781 L 86.621094 37.175781 L 87.3125 37.179688 L 88.957031 37.179688 L 89.882812 37.183594 L 90.390625 37.183594 L 92.589844 37.179688 L 93.832031 37.175781 L 94.335938 37.171875 L 95.277344 37.164062 L 95.640625 37.15625 L 96.285156 37.144531 L 96.5 37.132812 L 96.859375 37.117188 L 96.929688 37.105469 L 97.007812 37.082031 L 96.945312 37.070312 L 96.746094 37.039062 L 96.546875 37.023438 L 96.082031 36.988281 L 95.746094 36.96875 L 94.886719 36.929688 L 94.234375 36.910156 L 93.875 36.90625 L 92.359375 36.882812 L 91.535156 36.882812 Z M 89.863281 36.886719 " fill-opacity="1" fill-rule="nonzero"/><path fill="#4848fa" d="M 60.921875 120.710938 L 61.019531 120.941406 L 61.019531 121.027344 L 60.921875 121.171875 L 60.691406 121.265625 L 60.601562 121.265625 L 60.464844 121.171875 L 60.40625 121.109375 L 60.367188 120.941406 L 60.367188 120.847656 L 60.464844 120.710938 L 60.691406 120.617188 L 60.785156 120.617188 M 378.046875 120.710938 L 378.277344 120.941406 L 378.332031 121.027344 L 378.273438 121.171875 L 377.972656 121.265625 L 377.832031 121.265625 L 377.617188 121.171875 L 377.527344 121.109375 L 377.46875 120.941406 L 377.46875 120.847656 L 377.558594 120.710938 L 377.773438 120.617188 L 377.855469 120.617188 M 474.347656 120.710938 L 474.671875 120.941406 L 474.703125 120.984375 L 474.691406 121.070312 L 474.671875 121.109375 L 474.578125 121.171875 L 474.042969 121.265625 L 473.816406 121.265625 L 473.457031 121.171875 L 473.308594 121.109375 L 473.214844 120.941406 L 473.214844 120.847656 L 473.398438 120.710938 L 473.84375 120.617188 L 474.015625 120.617188 M 546.921875 97.628906 L 547.160156 97.640625 L 547.566406 97.6875 L 547.753906 97.710938 L 548.019531 97.78125 L 548.1875 97.917969 L 548.1875 97.96875 L 548 98.050781 L 547.878906 98.085938 L 547.480469 98.148438 L 547.257812 98.179688 L 546.679688 98.21875 L 545.671875 98.238281 L 545.238281 98.238281 L 544.570312 98.21875 L 544.273438 98.203125 L 543.878906 98.160156 L 543.710938 98.132812 L 543.570312 98.0625 L 543.53125 98.019531 L 543.644531 97.917969 L 543.726562 97.867188 L 544.023438 97.78125 L 544.191406 97.742188 L 544.625 97.6875 L 545.082031 97.632812 L 546.160156 97.609375 L 546.421875 97.609375 M 568.441406 97.644531 L 569.0625 97.648438 L 570.246094 97.667969 L 570.828125 97.675781 L 571.890625 97.699219 L 572.402344 97.710938 L 573.304688 97.742188 L 573.730469 97.753906 L 574.433594 97.789062 L 574.757812 97.808594 L 575.222656 97.851562 L 575.613281 97.917969 L 575.660156 97.9375 L 575.53125 97.976562 L 575.429688 97.996094 L 575.019531 98.03125 L 574.78125 98.050781 L 574.113281 98.082031 L 573.75 98.097656 L 572.839844 98.125 L 572.359375 98.136719 L 571.238281 98.160156 L 570.652344 98.171875 L 569.332031 98.1875 L 568.648438 98.195312 L 567.15625 98.207031 L 564.738281 98.214844 L 563.796875 98.21875 L 562.085938 98.214844 L 561.257812 98.214844 L 559.785156 98.203125 L 559.078125 98.199219 L 557.847656 98.183594 L 557.257812 98.171875 L 556.273438 98.148438 L 555.808594 98.136719 L 555.066406 98.105469 L 554.722656 98.089844 L 554.234375 98.054688 L 554.015625 98.035156 L 553.777344 97.992188 L 553.6875 97.96875 L 553.703125 97.917969 L 553.742188 97.894531 L 554.042969 97.851562 L 554.222656 97.828125 L 554.78125 97.789062 L 555.089844 97.773438 L 555.875 97.742188 L 556.289062 97.726562 L 557.253906 97.699219 L 557.757812 97.6875 L 558.871094 97.667969 L 559.441406 97.65625 L 560.664062 97.644531 L 561.902344 97.628906 L 564.546875 97.625 L 565.867188 97.625 M 92.359375 36.882812 L 93.875 36.90625 L 94.234375 36.910156 L 94.886719 36.929688 L 95.746094 36.96875 L 96.082031 36.988281 L 96.546875 37.023438 L 96.746094 37.039062 L 96.945312 37.070312 L 97.007812 37.082031 L 96.929688 37.105469 L 96.859375 37.117188 L 96.5 37.132812 L 96.285156 37.144531 L 95.640625 37.15625 L 95.277344 37.164062 L 94.335938 37.171875 L 93.832031 37.175781 L 92.589844 37.179688 L 90.390625 37.183594 L 89.882812 37.183594 L 88.957031 37.179688 L 87.3125 37.179688 L 86.621094 37.175781 L 86.289062 37.175781 L 85.707031 37.171875 L 84.960938 37.171875 L 84.742188 37.167969 L 84.375 37.164062 L 84.210938 37.160156 L 83.953125 37.152344 L 83.839844 37.152344 L 83.683594 37.144531 L 83.617188 37.140625 L 83.566406 37.132812 L 83.550781 37.128906 L 83.59375 37.117188 L 83.628906 37.113281 L 83.765625 37.097656 L 83.847656 37.09375 L 84.082031 37.078125 L 84.207031 37.074219 L 84.527344 37.058594 L 84.703125 37.050781 L 85.109375 37.03125 L 85.542969 37.011719 L 86.660156 36.964844 L 87.394531 36.9375 L 89.03125 36.902344 L 89.863281 36.886719 L 91.535156 36.882812 Z M 92.359375 36.882812 " fill-opacity="1" fill-rule="nonzero"/><path fill="#babaf8" d="M 217.78125 123.214844 L 216.628906 122.964844 L 214.496094 122.375 L 213.453125 122.0625 L 211.5 121.332031 L 210.542969 120.945312 L 208.71875 120.054688 L 206.070312 118.511719 L 205.742188 118.300781 L 205.167969 117.949219 L 204.894531 117.789062 L 204.398438 117.535156 L 204.15625 117.421875 L 203.695312 117.261719 L 203.464844 117.191406 L 202.996094 117.117188 L 202.753906 117.089844 L 202.234375 117.101562 L 201.964844 117.113281 L 201.351562 117.203125 L 201.035156 117.253906 L 200.292969 117.414062 L 198.980469 117.730469 L 196.28125 118.410156 L 194.34375 116.515625 L 194.097656 116.273438 L 193.550781 115.699219 L 193.269531 115.398438 L 192.667969 114.726562 L 192.058594 114.035156 L 190.78125 112.492188 L 190.152344 111.710938 L 188.972656 110.164062 L 188.695312 109.789062 L 188.1875 109.078125 L 187.53125 108.101562 L 187.183594 107.558594 L 186.507812 106.386719 L 186.171875 105.789062 L 185.523438 104.515625 L 184.882812 103.226562 L 183.730469 100.445312 L 183.179688 99.035156 L 182.257812 96.15625 L 182.046875 95.4375 L 181.675781 94.011719 L 181.214844 91.921875 L 181.121094 91.425781 L 180.964844 90.25 L 180.894531 89.636719 L 180.789062 88.28125 L 180.738281 87.582031 L 180.679688 86.105469 L 180.660156 85.359375 L 180.644531 83.824219 L 180.644531 83.054688 L 180.679688 81.53125 L 180.707031 80.777344 L 180.789062 79.324219 L 180.835938 78.613281 L 180.96875 77.300781 L 181.21875 75.558594 L 181.40625 74.539062 L 181.882812 72.527344 L 182.136719 71.53125 L 182.742188 69.566406 L 183.058594 68.59375 L 183.792969 66.691406 L 184.175781 65.746094 L 185.03125 63.902344 L 185.472656 62.988281 L 186.445312 61.210938 L 186.945312 60.332031 L 188.03125 58.625 L 188.585938 57.78125 L 189.78125 56.152344 L 190.390625 55.347656 L 191.6875 53.804688 L 192.347656 53.039062 L 193.746094 51.582031 L 194.453125 50.863281 L 195.941406 49.496094 L 196.699219 48.828125 L 198.277344 47.5625 L 199.074219 46.941406 L 200.738281 45.78125 L 201.578125 45.214844 L 203.324219 44.160156 L 204.203125 43.652344 L 206.019531 42.714844 L 206.933594 42.261719 L 208.824219 41.445312 L 211.730469 40.359375 L 213.023438 39.929688 L 215.691406 39.25 L 217.035156 38.9375 L 219.78125 38.496094 L 221.160156 38.304688 L 223.953125 38.105469 L 225.347656 38.03125 L 228.152344 38.070312 L 229.550781 38.117188 L 232.332031 38.394531 L 233.71875 38.5625 L 236.449219 39.074219 L 237.804688 39.359375 L 240.449219 40.109375 L 244.285156 41.492188 L 245.386719 41.949219 L 247.507812 42.988281 L 248.558594 43.527344 L 250.574219 44.714844 L 251.566406 45.328125 L 253.46875 46.660156 L 254.40625 47.34375 L 256.191406 48.808594 L 257.070312 49.558594 L 258.730469 51.152344 L 259.546875 51.960938 L 261.082031 53.671875 L 261.832031 54.535156 L 263.230469 56.351562 L 263.914062 57.273438 L 265.171875 59.1875 L 265.785156 60.15625 L 266.898438 62.160156 L 267.4375 63.171875 L 268.398438 65.253906 L 268.863281 66.304688 L 269.667969 68.460938 L 270.046875 69.546875 L 270.691406 71.765625 L 270.992188 72.882812 L 271.464844 75.15625 L 271.683594 76.300781 L 271.980469 78.613281 L 272.109375 79.777344 L 272.230469 82.132812 L 272.203125 85.691406 L 272.140625 87.121094 L 271.828125 89.914062 L 271.644531 91.300781 L 271.097656 94.003906 L 270.796875 95.34375 L 270.015625 97.957031 L 269.597656 99.25 L 268.589844 101.761719 L 268.058594 103.007812 L 266.820312 105.414062 L 266.171875 106.609375 L 264.707031 108.910156 L 263.949219 110.046875 L 262.257812 112.238281 L 259.472656 115.390625 L 256.484375 118.5 L 253.722656 117.773438 L 253.265625 117.65625 L 252.480469 117.464844 L 252.105469 117.375 L 251.457031 117.246094 L 251.144531 117.1875 L 250.601562 117.125 L 250.34375 117.097656 L 249.882812 117.097656 L 249.441406 117.109375 L 248.6875 117.335938 L 247.539062 117.980469 L 247.121094 118.265625 L 246.21875 118.820312 L 245.757812 119.09375 L 244.777344 119.625 L 243.78125 120.152344 L 241.613281 121.105469 L 240.511719 121.558594 L 238.230469 122.335938 L 234.824219 123.230469 L 234.320312 123.339844 L 233.09375 123.511719 L 232.453125 123.589844 L 231.015625 123.707031 L 230.277344 123.761719 L 228.703125 123.828125 L 227.90625 123.855469 L 226.277344 123.863281 L 225.460938 123.863281 L 223.855469 123.824219 L 223.058594 123.796875 L 221.550781 123.699219 L 220.816406 123.648438 L 219.488281 123.5 L 218.851562 123.417969 M 230.871094 115.933594 L 231.96875 115.726562 L 234.101562 115.089844 L 235.160156 114.738281 L 237.199219 113.835938 L 238.207031 113.351562 L 240.136719 112.203125 L 241.09375 111.601562 L 242.90625 110.234375 L 243.796875 109.523438 L 245.476562 107.957031 L 246.300781 107.152344 L 247.835938 105.414062 L 248.585938 104.519531 L 249.960938 102.628906 L 250.628906 101.664062 L 251.835938 99.640625 L 252.417969 98.617188 L 253.433594 96.484375 L 253.921875 95.414062 L 254.742188 93.203125 L 255.128906 92.085938 L 255.738281 89.816406 L 256.019531 88.675781 L 256.40625 86.367188 L 256.570312 85.210938 L 256.722656 82.890625 L 256.765625 81.730469 L 256.667969 79.417969 L 256.582031 78.265625 L 256.222656 75.988281 L 255.371094 72.628906 L 254.980469 71.425781 L 253.992188 69.109375 L 253.457031 67.96875 L 252.191406 65.800781 L 251.523438 64.738281 L 250 62.738281 L 247.433594 59.964844 L 247.101562 59.644531 L 246.476562 59.070312 L 246.171875 58.789062 L 245.582031 58.285156 L 244.996094 57.789062 L 243.839844 56.9375 L 243.25 56.523438 L 241.953125 55.742188 L 241.613281 55.542969 L 240.867188 55.144531 L 239.652344 54.515625 L 239.078125 54.226562 L 238.027344 53.730469 L 237.515625 53.5 L 236.542969 53.101562 L 236.0625 52.917969 L 235.117188 52.617188 L 234.644531 52.472656 L 233.683594 52.25 L 233.195312 52.148438 L 232.167969 51.996094 L 231.636719 51.921875 L 230.492188 51.828125 L 229.902344 51.785156 L 228.589844 51.742188 L 226.382812 51.714844 L 225.785156 51.714844 L 224.753906 51.722656 L 224.261719 51.726562 L 223.414062 51.742188 L 223.007812 51.75 L 222.304688 51.78125 L 221.972656 51.796875 L 221.375 51.84375 L 220.800781 51.898438 L 219.8125 52.074219 L 218.269531 52.460938 L 217.363281 52.71875 L 215.621094 53.339844 L 214.761719 53.667969 L 213.113281 54.421875 L 212.296875 54.816406 L 210.738281 55.695312 L 209.976562 56.152344 L 208.519531 57.148438 L 207.804688 57.660156 L 206.453125 58.769531 L 205.792969 59.339844 L 204.554688 60.554688 L 203.949219 61.171875 L 202.824219 62.484375 L 202.273438 63.152344 L 201.269531 64.554688 L 200.78125 65.265625 L 199.898438 66.753906 L 199.472656 67.507812 L 198.71875 69.070312 L 198.363281 69.859375 L 197.742188 71.492188 L 197.453125 72.316406 L 196.972656 74.011719 L 196.746094 74.871094 L 196.410156 76.625 L 196.261719 77.503906 L 196.070312 79.308594 L 195.992188 80.214844 L 195.957031 82.0625 L 196.074219 84.867188 L 196.164062 85.914062 L 196.515625 88.03125 L 196.71875 89.089844 L 197.289062 91.21875 L 197.601562 92.285156 L 198.375 94.394531 L 198.785156 95.445312 L 199.746094 97.503906 L 200.25 98.527344 L 201.382812 100.503906 L 201.96875 101.480469 L 203.257812 103.339844 L 203.917969 104.25 L 205.34375 105.964844 L 207.625 108.332031 L 207.992188 108.675781 L 208.679688 109.296875 L 209.011719 109.59375 L 209.648438 110.132812 L 210.277344 110.660156 L 211.507812 111.539062 L 212.132812 111.964844 L 213.503906 112.753906 L 213.863281 112.949219 L 214.648438 113.351562 L 215.9375 113.980469 L 216.535156 114.261719 L 217.742188 114.75 L 218.351562 114.984375 L 219.574219 115.371094 L 220.1875 115.554688 L 221.425781 115.847656 L 222.046875 115.976562 L 223.296875 116.167969 L 223.921875 116.25 L 225.183594 116.335938 L 225.8125 116.367188 L 227.074219 116.355469 L 227.707031 116.335938 L 228.972656 116.222656 L 229.605469 116.152344 Z M 230.871094 115.933594 " fill-opacity="1" fill-rule="nonzero"/></svg>